<svg xmlns="http://www.w3.org/2000/svg" xmlns:xlink="http://www.w3.org/1999/xlink" width="500" zoomAndPan="magnify" viewBox="0 0 375 374.999991" height="500" preserveAspectRatio="xMidYMid meet" version="1.0"><defs><g/><clipPath id="30f7d4242a"><path d="M 45.789062 169.597656 L 329.210938 169.597656 L 329.210938 196.484375 L 45.789062 196.484375 Z M 45.789062 169.597656 " clip-rule="nonzero"/></clipPath></defs><g fill="#231f20" fill-opacity="1"><g transform="translate(16.953232, 212.307672)"><g><path d="M 28.210938 -67.527344 L 3.203125 -67.527344 L 3.203125 -66.929688 L 8.605469 -61.726562 L 8.605469 -5.800781 L 3.203125 -0.601562 L 3.203125 0 L 28.410156 0 C 57.023438 0 65.226562 -19.410156 65.226562 -35.414062 C 65.226562 -56.925781 52.722656 -67.527344 28.210938 -67.527344 Z M 28.113281 -2 L 28.113281 -65.726562 L 28.613281 -65.726562 C 41.316406 -65.726562 44.617188 -56.222656 44.617188 -33.8125 C 44.617188 -10.203125 41.117188 -2 30.011719 -2 Z M 28.113281 -2 "/></g></g></g><g fill="#231f20" fill-opacity="1"><g transform="translate(81.673029, 212.307672)"><g><path d="M 20.109375 -67.527344 L 20.109375 -66.929688 L 24.410156 -54.824219 L 0.699219 -0.601562 L 0.699219 0 L 26.3125 0 L 26.3125 -0.601562 C 21.808594 -5.703125 19.308594 -13.90625 19.109375 -23.410156 L 35.515625 -23.410156 L 41.519531 -5.800781 L 36.414062 -0.601562 L 36.414062 0 L 63.527344 0 L 63.527344 -0.601562 L 40.71875 -67.527344 Z M 19.109375 -25.210938 C 19.308594 -31.613281 20.507812 -38.617188 22.910156 -45.519531 L 25.210938 -52.023438 L 25.8125 -52.023438 L 34.914062 -25.210938 Z M 19.109375 -25.210938 "/></g></g></g><g fill="#231f20" fill-opacity="1"><g transform="translate(143.091789, 212.307672)"><g><path d="M 37.917969 -66.929688 C 49.421875 -55.023438 58.523438 -37.214844 58.523438 -20.109375 L 58.523438 -14.207031 L 57.925781 -14.207031 L 25.3125 -67.527344 L 1.5 -67.527344 L 1.5 -67.027344 L 8.304688 -56.425781 L 8.304688 0 L 31.511719 0 L 31.511719 -0.601562 C 19.207031 -12.707031 10.605469 -27.410156 10.605469 -46.519531 L 10.605469 -53.121094 L 11.105469 -53.121094 L 43.820312 0.199219 L 60.726562 0.199219 L 60.726562 -67.527344 L 37.917969 -67.527344 Z M 37.917969 -66.929688 "/></g></g></g><g fill="#231f20" fill-opacity="1"><g transform="translate(207.511493, 212.307672)"><g><path d="M 8.304688 -6.203125 L 3.203125 -0.601562 L 3.203125 0 L 33.015625 0 L 33.015625 -0.601562 L 27.910156 -6.203125 L 27.910156 -61.324219 L 33.015625 -66.929688 L 33.015625 -67.527344 L 3.203125 -67.527344 L 3.203125 -66.929688 L 8.304688 -61.324219 Z M 8.304688 -6.203125 "/></g></g></g><g fill="#231f20" fill-opacity="1"><g transform="translate(240.721467, 212.307672)"><g><path d="M 36.617188 1.101562 C 39.015625 1.101562 53.324219 -9.503906 59.625 -14.804688 L 59.226562 -15.40625 C 56.125 -14.304688 53.121094 -13.605469 49.921875 -13.605469 C 25.910156 -13.605469 16.808594 -37.917969 16.808594 -52.320312 C 16.90625 -60.726562 20.707031 -64.027344 24.511719 -64.027344 C 28.8125 -64.027344 37.515625 -60.625 43.117188 -40.816406 L 43.71875 -40.617188 L 60.125 -56.722656 C 56.722656 -63.027344 47.320312 -68.929688 35.015625 -68.929688 C 28.011719 -68.929688 2.601562 -62.527344 2.5 -34.414062 C 2.402344 -12.707031 17.507812 0.398438 36.617188 1.101562 Z M 36.617188 1.101562 "/></g></g></g><g fill="#231f20" fill-opacity="1"><g transform="translate(298.839207, 212.307672)"><g><path d="M 20.109375 -67.527344 L 20.109375 -66.929688 L 24.410156 -54.824219 L 0.699219 -0.601562 L 0.699219 0 L 26.3125 0 L 26.3125 -0.601562 C 21.808594 -5.703125 19.308594 -13.90625 19.109375 -23.410156 L 35.515625 -23.410156 L 41.519531 -5.800781 L 36.414062 -0.601562 L 36.414062 0 L 63.527344 0 L 63.527344 -0.601562 L 40.71875 -67.527344 Z M 19.109375 -25.210938 C 19.308594 -31.613281 20.507812 -38.617188 22.910156 -45.519531 L 25.210938 -52.023438 L 25.8125 -52.023438 L 34.914062 -25.210938 Z M 19.109375 -25.210938 "/></g></g></g><g clip-path="url(#30f7d4242a)"><path fill="#fbfaf9" d="M 45.789062 169.597656 L 329.226562 169.597656 L 329.226562 196.484375 L 45.789062 196.484375 Z M 45.789062 169.597656 " fill-opacity="1" fill-rule="nonzero"/></g><g fill="#231f20" fill-opacity="1"><g transform="translate(59.134186, 184.916193)"><g><path d="M 0.480469 0 L 5.695312 0 C 7.199219 0 8.175781 -0.746094 8.175781 -1.886719 C 8.175781 -2.664062 7.667969 -3.296875 6.890625 -3.480469 L 6.890625 -3.488281 C 7.554688 -3.691406 7.984375 -4.253906 7.984375 -4.945312 C 7.984375 -6.066406 7.0625 -6.796875 5.65625 -6.796875 L 0.480469 -6.796875 Z M 1.8125 -3.910156 L 1.8125 -5.894531 L 5.328125 -5.894531 C 6.132812 -5.894531 6.652344 -5.511719 6.652344 -4.898438 C 6.652344 -4.292969 6.132812 -3.910156 5.339844 -3.910156 Z M 1.8125 -0.902344 L 1.8125 -3.078125 L 5.347656 -3.078125 C 6.25 -3.078125 6.84375 -2.636719 6.84375 -1.992188 C 6.84375 -1.332031 6.25 -0.902344 5.347656 -0.902344 Z M 1.8125 -0.902344 "/></g></g></g><g fill="#231f20" fill-opacity="1"><g transform="translate(75.170551, 184.916193)"><g><path d="M 3.375 0 L 4.707031 0 L 4.707031 -2.464844 L 8.042969 -6.796875 L 6.519531 -6.796875 L 4.042969 -3.480469 L 4.035156 -3.480469 L 1.523438 -6.796875 L -0.0078125 -6.796875 L 3.375 -2.464844 Z M 3.375 0 "/></g></g></g><g fill="#231f20" fill-opacity="1"><g transform="translate(90.871809, 184.916193)"><g/></g></g><g fill="#231f20" fill-opacity="1"><g transform="translate(101.307241, 184.916193)"><g><path d="M 0.480469 0 L 4.746094 0 C 7.3125 0 8.742188 -1.21875 8.742188 -3.394531 C 8.742188 -5.578125 7.3125 -6.796875 4.746094 -6.796875 L 0.480469 -6.796875 Z M 1.792969 -1.007812 L 1.792969 -5.769531 L 4.628906 -5.769531 C 6.429688 -5.769531 7.4375 -4.925781 7.4375 -3.394531 C 7.4375 -1.859375 6.429688 -1.007812 4.628906 -1.007812 Z M 1.792969 -1.007812 "/></g></g></g><g fill="#231f20" fill-opacity="1"><g transform="translate(118.071244, 184.916193)"><g><path d="M 0.0390625 0 L 1.429688 0 L 2.203125 -1.484375 L 6.460938 -1.484375 L 7.238281 0 L 8.636719 0 L 5.128906 -6.796875 L 3.574219 -6.796875 Z M 2.597656 -2.414062 L 4.332031 -5.828125 L 4.351562 -5.828125 L 6.078125 -2.414062 Z M 2.597656 -2.414062 "/></g></g></g><g fill="#231f20" fill-opacity="1"><g transform="translate(134.404399, 184.916193)"><g><path d="M 0.480469 0 L 1.761719 0 L 1.761719 -5.5 L 1.773438 -5.5 L 6.640625 0 L 8.308594 0 L 8.308594 -6.796875 L 7.015625 -6.796875 L 7.015625 -1.304688 L 7.007812 -1.304688 L 2.148438 -6.796875 L 0.480469 -6.796875 Z M 0.480469 0 "/></g></g></g><g fill="#231f20" fill-opacity="1"><g transform="translate(150.852453, 184.916193)"><g><path d="M 0.480469 0 L 1.800781 0 L 1.800781 -6.796875 L 0.480469 -6.796875 Z M 0.480469 0 "/></g></g></g><g fill="#231f20" fill-opacity="1"><g transform="translate(160.7996, 184.916193)"><g><path d="M 5.050781 0.21875 C 7.253906 0.21875 8.953125 -0.796875 9.414062 -2.394531 L 8.175781 -2.683594 C 7.832031 -1.542969 6.632812 -0.816406 5.070312 -0.816406 C 3.007812 -0.816406 1.695312 -1.820312 1.695312 -3.394531 C 1.695312 -4.964844 2.894531 -5.972656 4.773438 -5.972656 C 6.132812 -5.972656 7.199219 -5.328125 7.523438 -4.3125 L 8.730469 -4.667969 C 8.234375 -6.097656 6.679688 -7.007812 4.746094 -7.007812 C 2.0625 -7.007812 0.363281 -5.597656 0.363281 -3.394531 C 0.363281 -1.167969 2.183594 0.21875 5.050781 0.21875 Z M 5.050781 0.21875 "/></g></g></g><g fill="#231f20" fill-opacity="1"><g transform="translate(178.128483, 184.916193)"><g><path d="M 0.0390625 0 L 1.429688 0 L 2.203125 -1.484375 L 6.460938 -1.484375 L 7.238281 0 L 8.636719 0 L 5.128906 -6.796875 L 3.574219 -6.796875 Z M 2.597656 -2.414062 L 4.332031 -5.828125 L 4.351562 -5.828125 L 6.078125 -2.414062 Z M 2.597656 -2.414062 "/></g></g></g><g fill="#231f20" fill-opacity="1"><g transform="translate(194.461638, 184.916193)"><g/></g></g><g fill="#231f20" fill-opacity="1"><g transform="translate(204.89707, 184.916193)"><g><path d="M 0.480469 0 L 4.746094 0 C 7.3125 0 8.742188 -1.21875 8.742188 -3.394531 C 8.742188 -5.578125 7.3125 -6.796875 4.746094 -6.796875 L 0.480469 -6.796875 Z M 1.792969 -1.007812 L 1.792969 -5.769531 L 4.628906 -5.769531 C 6.429688 -5.769531 7.4375 -4.925781 7.4375 -3.394531 C 7.4375 -1.859375 6.429688 -1.007812 4.628906 -1.007812 Z M 1.792969 -1.007812 "/></g></g></g><g fill="#231f20" fill-opacity="1"><g transform="translate(221.661073, 184.916193)"><g><path d="M 0.480469 0 L 1.800781 0 L 1.800781 -6.796875 L 0.480469 -6.796875 Z M 0.480469 0 "/></g></g></g><g fill="#231f20" fill-opacity="1"><g transform="translate(231.608219, 184.916193)"><g><path d="M 0.480469 0 L 1.761719 0 L 1.761719 -5.5 L 1.773438 -5.5 L 6.640625 0 L 8.308594 0 L 8.308594 -6.796875 L 7.015625 -6.796875 L 7.015625 -1.304688 L 7.007812 -1.304688 L 2.148438 -6.796875 L 0.480469 -6.796875 Z M 0.480469 0 "/></g></g></g><g fill="#231f20" fill-opacity="1"><g transform="translate(248.056273, 184.916193)"><g><path d="M 0.0390625 0 L 1.429688 0 L 2.203125 -1.484375 L 6.460938 -1.484375 L 7.238281 0 L 8.636719 0 L 5.128906 -6.796875 L 3.574219 -6.796875 Z M 2.597656 -2.414062 L 4.332031 -5.828125 L 4.351562 -5.828125 L 6.078125 -2.414062 Z M 2.597656 -2.414062 "/></g></g></g><g fill="#231f20" fill-opacity="1"><g transform="translate(264.389429, 184.916193)"><g><path d="M 4.871094 0.21875 C 6.5 0.21875 7.839844 -0.402344 8.53125 -1.390625 L 8.539062 -1.390625 L 8.636719 0 L 9.710938 0 L 9.710938 -3.796875 L 3.5 -3.796875 L 3.5 -2.941406 L 8.425781 -2.941406 C 8.394531 -1.707031 6.976562 -0.765625 5.183594 -0.765625 C 3.152344 -0.765625 1.695312 -1.851562 1.695312 -3.375 C 1.695312 -4.917969 3.039062 -6 4.925781 -5.992188 C 6.152344 -5.992188 7.304688 -5.445312 7.570312 -4.667969 L 8.808594 -4.945312 C 8.453125 -6.164062 6.796875 -7.007812 4.925781 -7.007812 C 2.253906 -7.007812 0.363281 -5.492188 0.363281 -3.34375 C 0.363281 -1.265625 2.234375 0.21875 4.871094 0.21875 Z M 4.871094 0.21875 "/></g></g></g><g fill="#231f20" fill-opacity="1"><g transform="translate(282.091721, 184.916193)"><g><path d="M 4.304688 0.21875 C 6.691406 0.21875 8.234375 -0.96875 8.234375 -3.097656 L 8.234375 -6.796875 L 6.902344 -6.796875 L 6.902344 -3.132812 C 6.902344 -1.609375 5.875 -0.84375 4.3125 -0.84375 C 2.761719 -0.84375 1.726562 -1.609375 1.726562 -3.132812 L 1.726562 -6.796875 L 0.382812 -6.796875 L 0.382812 -3.097656 C 0.382812 -0.96875 1.925781 0.21875 4.304688 0.21875 Z M 4.304688 0.21875 "/></g></g></g><g fill="#231f20" fill-opacity="1"><g transform="translate(298.367439, 184.916193)"><g><path d="M 0.480469 0 L 1.800781 0 L 1.800781 -6.796875 L 0.480469 -6.796875 Z M 0.480469 0 "/></g></g></g><g fill="#231f20" fill-opacity="1"><g transform="translate(308.314574, 184.916193)"><g><path d="M 3.105469 0 L 4.4375 0 L 4.4375 -5.75 L 7.484375 -5.75 L 7.484375 -6.796875 L 0.0585938 -6.796875 L 0.0585938 -5.75 L 3.105469 -5.75 Z M 3.105469 0 "/></g></g></g></svg>