<svg xmlns="http://www.w3.org/2000/svg" xmlns:xlink="http://www.w3.org/1999/xlink" width="500" zoomAndPan="magnify" viewBox="0 0 375 374.999991" height="500" preserveAspectRatio="xMidYMid meet" version="1.0"><defs><g/><clipPath id="435bd9f1ef"><path d="M 40.847656 172.523438 L 334.152344 172.523438 L 334.152344 202.476562 L 40.847656 202.476562 Z M 40.847656 172.523438 " clip-rule="nonzero"/></clipPath></defs><g fill="#fbfaf9" fill-opacity="1"><g transform="translate(14.398471, 219.374078)"><g><path d="M 28.199219 -67.5 L 3.199219 -67.5 L 3.199219 -66.898438 L 8.601562 -61.699219 L 8.601562 -5.800781 L 3.199219 -0.601562 L 3.199219 0 L 28.398438 0 C 57 0 65.199219 -19.398438 65.199219 -35.398438 C 65.199219 -56.898438 52.699219 -67.5 28.199219 -67.5 Z M 28.097656 -2 L 28.097656 -65.699219 L 28.597656 -65.699219 C 41.300781 -65.699219 44.597656 -56.199219 44.597656 -33.800781 C 44.597656 -10.199219 41.097656 -2 30 -2 Z M 28.097656 -2 "/></g></g></g><g fill="#fbfaf9" fill-opacity="1"><g transform="translate(79.095838, 219.374078)"><g><path d="M 20.097656 -67.5 L 20.097656 -66.898438 L 24.398438 -54.796875 L 0.699219 -0.601562 L 0.699219 0 L 26.300781 0 L 26.300781 -0.601562 C 21.800781 -5.699219 19.300781 -13.898438 19.097656 -23.398438 L 35.5 -23.398438 L 41.5 -5.800781 L 36.398438 -0.601562 L 36.398438 0 L 63.5 0 L 63.5 -0.601562 L 40.699219 -67.5 Z M 19.097656 -25.199219 C 19.300781 -31.597656 20.5 -38.597656 22.898438 -45.5 L 25.199219 -52 L 25.800781 -52 L 34.898438 -25.199219 Z M 19.097656 -25.199219 "/></g></g></g><g fill="#fbfaf9" fill-opacity="1"><g transform="translate(140.493335, 219.374078)"><g><path d="M 37.898438 -66.898438 C 49.398438 -55 58.5 -37.199219 58.5 -20.097656 L 58.5 -14.199219 L 57.898438 -14.199219 L 25.300781 -67.5 L 1.5 -67.5 L 1.5 -67 L 8.300781 -56.398438 L 8.300781 0 L 31.5 0 L 31.5 -0.601562 C 19.199219 -12.699219 10.601562 -27.398438 10.601562 -46.5 L 10.601562 -53.097656 L 11.101562 -53.097656 L 43.800781 0.199219 L 60.699219 0.199219 L 60.699219 -67.5 L 37.898438 -67.5 Z M 37.898438 -66.898438 "/></g></g></g><g fill="#fbfaf9" fill-opacity="1"><g transform="translate(204.890723, 219.374078)"><g><path d="M 8.300781 -6.199219 L 3.199219 -0.601562 L 3.199219 0 L 33 0 L 33 -0.601562 L 27.898438 -6.199219 L 27.898438 -61.296875 L 33 -66.898438 L 33 -67.5 L 3.199219 -67.5 L 3.199219 -66.898438 L 8.300781 -61.296875 Z M 8.300781 -6.199219 "/></g></g></g><g fill="#fbfaf9" fill-opacity="1"><g transform="translate(238.089299, 219.374078)"><g><path d="M 36.597656 1.101562 C 39 1.101562 53.296875 -9.5 59.597656 -14.800781 L 59.199219 -15.398438 C 56.097656 -14.300781 53.097656 -13.601562 49.898438 -13.601562 C 25.898438 -13.601562 16.800781 -37.898438 16.800781 -52.296875 C 16.898438 -60.699219 20.699219 -64 24.5 -64 C 28.800781 -64 37.5 -60.597656 43.097656 -40.800781 L 43.699219 -40.597656 L 60.097656 -56.699219 C 56.699219 -63 47.296875 -68.898438 35 -68.898438 C 28 -68.898438 2.601562 -62.5 2.5 -34.398438 C 2.398438 -12.699219 17.5 0.398438 36.597656 1.101562 Z M 36.597656 1.101562 "/></g></g></g><g fill="#fbfaf9" fill-opacity="1"><g transform="translate(296.186921, 219.374078)"><g><path d="M 20.097656 -67.5 L 20.097656 -66.898438 L 24.398438 -54.796875 L 0.699219 -0.601562 L 0.699219 0 L 26.300781 0 L 26.300781 -0.601562 C 21.800781 -5.699219 19.300781 -13.898438 19.097656 -23.398438 L 35.5 -23.398438 L 41.5 -5.800781 L 36.398438 -0.601562 L 36.398438 0 L 63.5 0 L 63.5 -0.601562 L 40.699219 -67.5 Z M 19.097656 -25.199219 C 19.300781 -31.597656 20.5 -38.597656 22.898438 -45.5 L 25.199219 -52 L 25.800781 -52 L 34.898438 -25.199219 Z M 19.097656 -25.199219 "/></g></g></g><g clip-path="url(#435bd9f1ef)"><path fill="#231f20" d="M 40.847656 172.523438 L 334.210938 172.523438 L 334.210938 202.476562 L 40.847656 202.476562 Z M 40.847656 172.523438 " fill-opacity="1" fill-rule="nonzero"/></g><g fill="#fbfaf9" fill-opacity="1"><g transform="translate(62.010609, 189.699786)"><g><path d="M 0.480469 0 L 5.691406 0 C 7.199219 0 8.175781 -0.746094 8.175781 -1.886719 C 8.175781 -2.664062 7.667969 -3.296875 6.890625 -3.480469 L 6.890625 -3.488281 C 7.550781 -3.691406 7.984375 -4.253906 7.984375 -4.945312 C 7.984375 -6.066406 7.0625 -6.792969 5.65625 -6.792969 L 0.480469 -6.792969 Z M 1.8125 -3.910156 L 1.8125 -5.894531 L 5.328125 -5.894531 C 6.132812 -5.894531 6.652344 -5.511719 6.652344 -4.898438 C 6.652344 -4.292969 6.132812 -3.910156 5.339844 -3.910156 Z M 1.8125 -0.902344 L 1.8125 -3.078125 L 5.347656 -3.078125 C 6.25 -3.078125 6.84375 -2.636719 6.84375 -1.992188 C 6.84375 -1.332031 6.25 -0.902344 5.347656 -0.902344 Z M 1.8125 -0.902344 "/></g></g></g><g fill="#fbfaf9" fill-opacity="1"><g transform="translate(78.050489, 189.699786)"><g><path d="M 3.375 0 L 4.707031 0 L 4.707031 -2.464844 L 8.039062 -6.792969 L 6.515625 -6.792969 L 4.042969 -3.480469 L 4.035156 -3.480469 L 1.523438 -6.792969 L -0.0078125 -6.792969 L 3.375 -2.464844 Z M 3.375 0 "/></g></g></g><g fill="#fbfaf9" fill-opacity="1"><g transform="translate(93.75512, 189.699786)"><g/></g></g><g fill="#fbfaf9" fill-opacity="1"><g transform="translate(104.191717, 189.699786)"><g><path d="M 0.480469 0 L 4.742188 0 C 7.3125 0 8.742188 -1.21875 8.742188 -3.394531 C 8.742188 -5.578125 7.3125 -6.792969 4.742188 -6.792969 L 0.480469 -6.792969 Z M 1.792969 -1.007812 L 1.792969 -5.769531 L 4.628906 -5.769531 C 6.429688 -5.769531 7.4375 -4.925781 7.4375 -3.394531 C 7.4375 -1.859375 6.429688 -1.007812 4.628906 -1.007812 Z M 1.792969 -1.007812 "/></g></g></g><g fill="#fbfaf9" fill-opacity="1"><g transform="translate(120.959536, 189.699786)"><g><path d="M 0.0390625 0 L 1.429688 0 L 2.203125 -1.484375 L 6.460938 -1.484375 L 7.234375 0 L 8.636719 0 L 5.128906 -6.792969 L 3.574219 -6.792969 Z M 2.597656 -2.414062 L 4.332031 -5.828125 L 4.351562 -5.828125 L 6.074219 -2.414062 Z M 2.597656 -2.414062 "/></g></g></g><g fill="#fbfaf9" fill-opacity="1"><g transform="translate(137.296342, 189.699786)"><g><path d="M 0.480469 0 L 1.761719 0 L 1.761719 -5.5 L 1.773438 -5.5 L 6.640625 0 L 8.308594 0 L 8.308594 -6.792969 L 7.015625 -6.792969 L 7.015625 -1.304688 L 7.003906 -1.304688 L 2.148438 -6.792969 L 0.480469 -6.792969 Z M 0.480469 0 "/></g></g></g><g fill="#fbfaf9" fill-opacity="1"><g transform="translate(153.748079, 189.699786)"><g><path d="M 0.480469 0 L 1.800781 0 L 1.800781 -6.792969 L 0.480469 -6.792969 Z M 0.480469 0 "/></g></g></g><g fill="#fbfaf9" fill-opacity="1"><g transform="translate(163.696192, 189.699786)"><g><path d="M 5.050781 0.21875 C 7.253906 0.21875 8.953125 -0.796875 9.410156 -2.394531 L 8.175781 -2.683594 C 7.828125 -1.542969 6.632812 -0.816406 5.070312 -0.816406 C 3.007812 -0.816406 1.695312 -1.820312 1.695312 -3.394531 C 1.695312 -4.964844 2.894531 -5.96875 4.773438 -5.96875 C 6.132812 -5.96875 7.199219 -5.328125 7.523438 -4.3125 L 8.730469 -4.667969 C 8.234375 -6.09375 6.679688 -7.003906 4.742188 -7.003906 C 2.058594 -7.003906 0.363281 -5.597656 0.363281 -3.394531 C 0.363281 -1.167969 2.183594 0.21875 5.050781 0.21875 Z M 5.050781 0.21875 "/></g></g></g><g fill="#fbfaf9" fill-opacity="1"><g transform="translate(181.029125, 189.699786)"><g><path d="M 0.0390625 0 L 1.429688 0 L 2.203125 -1.484375 L 6.460938 -1.484375 L 7.234375 0 L 8.636719 0 L 5.128906 -6.792969 L 3.574219 -6.792969 Z M 2.597656 -2.414062 L 4.332031 -5.828125 L 4.351562 -5.828125 L 6.074219 -2.414062 Z M 2.597656 -2.414062 "/></g></g></g><g fill="#fbfaf9" fill-opacity="1"><g transform="translate(197.365926, 189.699786)"><g/></g></g><g fill="#fbfaf9" fill-opacity="1"><g transform="translate(207.802528, 189.699786)"><g><path d="M 0.480469 0 L 4.742188 0 C 7.3125 0 8.742188 -1.21875 8.742188 -3.394531 C 8.742188 -5.578125 7.3125 -6.792969 4.742188 -6.792969 L 0.480469 -6.792969 Z M 1.792969 -1.007812 L 1.792969 -5.769531 L 4.628906 -5.769531 C 6.429688 -5.769531 7.4375 -4.925781 7.4375 -3.394531 C 7.4375 -1.859375 6.429688 -1.007812 4.628906 -1.007812 Z M 1.792969 -1.007812 "/></g></g></g><g fill="#fbfaf9" fill-opacity="1"><g transform="translate(224.570341, 189.699786)"><g><path d="M 0.480469 0 L 1.800781 0 L 1.800781 -6.792969 L 0.480469 -6.792969 Z M 0.480469 0 "/></g></g></g><g fill="#fbfaf9" fill-opacity="1"><g transform="translate(234.518443, 189.699786)"><g><path d="M 0.480469 0 L 1.761719 0 L 1.761719 -5.5 L 1.773438 -5.5 L 6.640625 0 L 8.308594 0 L 8.308594 -6.792969 L 7.015625 -6.792969 L 7.015625 -1.304688 L 7.003906 -1.304688 L 2.148438 -6.792969 L 0.480469 -6.792969 Z M 0.480469 0 "/></g></g></g><g fill="#fbfaf9" fill-opacity="1"><g transform="translate(250.970174, 189.699786)"><g><path d="M 0.0390625 0 L 1.429688 0 L 2.203125 -1.484375 L 6.460938 -1.484375 L 7.234375 0 L 8.636719 0 L 5.128906 -6.792969 L 3.574219 -6.792969 Z M 2.597656 -2.414062 L 4.332031 -5.828125 L 4.351562 -5.828125 L 6.074219 -2.414062 Z M 2.597656 -2.414062 "/></g></g></g><g fill="#fbfaf9" fill-opacity="1"><g transform="translate(267.306974, 189.699786)"><g><path d="M 4.867188 0.21875 C 6.496094 0.21875 7.839844 -0.402344 8.53125 -1.390625 L 8.539062 -1.390625 L 8.636719 0 L 9.707031 0 L 9.707031 -3.796875 L 3.5 -3.796875 L 3.5 -2.941406 L 8.425781 -2.941406 C 8.394531 -1.707031 6.976562 -0.765625 5.183594 -0.765625 C 3.152344 -0.765625 1.695312 -1.851562 1.695312 -3.375 C 1.695312 -4.917969 3.039062 -6 4.925781 -5.988281 C 6.152344 -5.988281 7.304688 -5.445312 7.570312 -4.667969 L 8.808594 -4.945312 C 8.453125 -6.164062 6.792969 -7.003906 4.925781 -7.003906 C 2.253906 -7.003906 0.363281 -5.492188 0.363281 -3.34375 C 0.363281 -1.265625 2.234375 0.21875 4.867188 0.21875 Z M 4.867188 0.21875 "/></g></g></g><g fill="#fbfaf9" fill-opacity="1"><g transform="translate(285.013477, 189.699786)"><g><path d="M 4.304688 0.21875 C 6.691406 0.21875 8.234375 -0.96875 8.234375 -3.09375 L 8.234375 -6.792969 L 6.898438 -6.792969 L 6.898438 -3.132812 C 6.898438 -1.609375 5.875 -0.84375 4.3125 -0.84375 C 2.761719 -0.84375 1.726562 -1.609375 1.726562 -3.132812 L 1.726562 -6.792969 L 0.382812 -6.792969 L 0.382812 -3.09375 C 0.382812 -0.96875 1.925781 0.21875 4.304688 0.21875 Z M 4.304688 0.21875 "/></g></g></g><g fill="#fbfaf9" fill-opacity="1"><g transform="translate(301.292812, 189.699786)"><g><path d="M 0.480469 0 L 1.800781 0 L 1.800781 -6.792969 L 0.480469 -6.792969 Z M 0.480469 0 "/></g></g></g><g fill="#fbfaf9" fill-opacity="1"><g transform="translate(311.240914, 189.699786)"><g><path d="M 3.105469 0 L 4.4375 0 L 4.4375 -5.75 L 7.484375 -5.75 L 7.484375 -6.792969 L 0.0585938 -6.792969 L 0.0585938 -5.75 L 3.105469 -5.75 Z M 3.105469 0 "/></g></g></g></svg>